<svg width="38" height="36" viewBox="0 0 38 36" fill="none" xmlns="http://www.w3.org/2000/svg">
<path d="M37.9996 21.3833C37.9996 29.2534 31.6196 35.6333 23.7496 35.6333C15.8795 35.6333 12.4023 27.945 12.4023 20.0749C12.4023 12.2049 15.8795 7.1333 23.7496 7.1333C31.6196 7.1333 37.9996 13.5132 37.9996 21.3833Z" fill="url(#paint0_linear_1475_6995)"/>
<g filter="url(#filter0_b_1475_6995)">
<path d="M0 5.14286C0 2.30254 3.83329 0 8.5619 0H26.2381C30.9667 0 34.8 2.30254 34.8 5.14286V30.8571C34.8 33.6975 30.9667 36 26.2381 36H8.56191C3.8333 36 0 33.6975 0 30.8571V5.14286Z" fill="#EDEDED" fill-opacity="0.37"/>
</g>
<path d="M14.593 12.6968C14.593 14.4071 13.2065 15.7935 11.4962 15.7935C9.78591 15.7935 8.39944 14.4071 8.39944 12.6968C8.39944 10.9864 9.78591 9.59998 11.4962 9.59998C13.2065 9.59998 14.593 10.9864 14.593 12.6968Z" fill="white"/>
<path d="M25.4317 12.6968C25.4317 14.4071 24.0452 15.7936 22.3349 15.7936C20.6246 15.7936 19.2381 14.4071 19.2381 12.6968C19.2381 10.9865 20.6246 9.60003 22.3349 9.60003C24.0452 9.60003 25.4317 10.9865 25.4317 12.6968Z" fill="white"/>
<path d="M14.593 25.0839C14.593 26.7942 13.2065 28.1807 11.4962 28.1807C9.78589 28.1807 8.39941 26.7942 8.39941 25.0839C8.39941 23.3736 9.78589 21.9872 11.4962 21.9872C13.2065 21.9872 14.593 23.3736 14.593 25.0839Z" fill="white"/>
<path d="M25.4317 25.0839C25.4317 26.7942 24.0452 28.1807 22.3349 28.1807C20.6246 28.1807 19.2381 26.7942 19.2381 25.0839C19.2381 23.3736 20.6246 21.9872 22.3349 21.9872C24.0452 21.9872 25.4317 23.3736 25.4317 25.0839Z" fill="#4A8FB1"/>
<defs>
<filter id="filter0_b_1475_6995" x="-25" y="-25" width="84.7998" height="86" filterUnits="userSpaceOnUse" color-interpolation-filters="sRGB">
<feFlood flood-opacity="0" result="BackgroundImageFix"/>
<feGaussianBlur in="BackgroundImageFix" stdDeviation="12.5"/>
<feComposite in2="SourceAlpha" operator="in" result="effect1_backgroundBlur_1475_6995"/>
<feBlend mode="normal" in="SourceGraphic" in2="effect1_backgroundBlur_1475_6995" result="shape"/>
</filter>
<linearGradient id="paint0_linear_1475_6995" x1="12.4023" y1="20.4333" x2="37.3862" y2="20.5334" gradientUnits="userSpaceOnUse">
<stop stop-color="#47C2FF"/>
<stop offset="1" stop-color="#63CBFE" stop-opacity="0.65"/>
</linearGradient>
</defs>
</svg>
