<svg width="45" height="30" viewBox="0 0 45 30" fill="none" xmlns="http://www.w3.org/2000/svg">
<path d="M37.7157 2.65222C36.8699 1.81139 35.8657 1.14438 34.7604 0.689305C33.6551 0.234229 32.4704 0 31.2739 0C30.0775 0 28.8928 0.234229 27.7875 0.689305C26.6822 1.14438 25.6779 1.81139 24.8321 2.65222L23.0768 4.39642L21.3214 2.65222C19.613 0.954595 17.2958 0.000879937 14.8796 0.000879955C12.4635 0.000879973 10.1463 0.954595 8.43782 2.65222C6.72934 4.34984 5.76953 6.65231 5.76953 9.05311C5.76953 11.4539 6.72934 13.7564 8.43782 15.454L10.1932 17.1982L23.0768 30L35.9604 17.1982L37.7157 15.454C38.562 14.6136 39.2332 13.6157 39.6912 12.5174C40.1492 11.4191 40.3849 10.2419 40.3849 9.05311C40.3849 7.86428 40.1492 6.68709 39.6912 5.5888C39.2332 4.49052 38.562 3.49265 37.7157 2.65222Z" fill="url(#paint0_linear_1475_6976)"/>
<g filter="url(#filter0_b_1475_6976)">
<path d="M18.75 21.9231C18.4212 21.9228 18.0983 21.836 17.8136 21.6714C17.5289 21.5069 17.2925 21.2704 17.1281 20.9856L13.9312 15.2389L11.8875 18.3044C11.7116 18.5581 11.4758 18.7644 11.2011 18.905C10.9263 19.0456 10.6211 19.1163 10.3125 19.1107H1.875C1.37772 19.1107 0.900806 18.9131 0.549175 18.5615C0.197544 18.2099 0 17.733 0 17.2357C0 16.7384 0.197544 16.2615 0.549175 15.9099C0.900806 15.5583 1.37772 15.3607 1.875 15.3607H9.30938L12.5063 10.5702C12.6849 10.3033 12.929 10.0867 13.2154 9.94129C13.5017 9.79583 13.8206 9.72636 14.1415 9.73954C14.4624 9.75271 14.7745 9.84809 15.048 10.0165C15.3214 10.185 15.547 10.4208 15.7031 10.7015L18.75 16.2982L23.6531 7.86091C23.8207 7.57059 24.063 7.33049 24.3548 7.16561C24.6467 7.00073 24.9774 6.9171 25.3125 6.92343C25.6397 6.9254 25.9607 7.01298 26.2436 7.17744C26.5265 7.3419 26.7614 7.57753 26.925 7.86091L31.4156 15.3607L33.2906 13.8795C33.623 13.6216 34.0324 13.4829 34.4531 13.4858H43.125C43.6223 13.4858 44.0992 13.6833 44.4508 14.0349C44.8025 14.3866 45 14.8635 45 15.3607C45 15.858 44.8025 16.3349 44.4508 16.6865C44.0992 17.0382 43.6223 17.2357 43.125 17.2357H35.1094L32.0625 19.645C31.8526 19.8177 31.6076 19.9427 31.3446 20.0113C31.0815 20.0799 30.8067 20.0905 30.5392 20.0423C30.2716 19.9942 30.0178 19.8884 29.7952 19.7324C29.5726 19.5764 29.3865 19.3738 29.25 19.1388L25.3125 12.4921L20.3719 20.9856C20.2075 21.2704 19.9711 21.5069 19.6864 21.6714C19.4017 21.836 19.0788 21.9228 18.75 21.9231Z" fill="white" fill-opacity="0.2"/>
</g>
<defs>
<filter id="filter0_b_1475_6976" x="-25" y="-18.0769" width="95" height="65" filterUnits="userSpaceOnUse" color-interpolation-filters="sRGB">
<feFlood flood-opacity="0" result="BackgroundImageFix"/>
<feGaussianBlur in="BackgroundImageFix" stdDeviation="12.5"/>
<feComposite in2="SourceAlpha" operator="in" result="effect1_backgroundBlur_1475_6976"/>
<feBlend mode="normal" in="SourceGraphic" in2="effect1_backgroundBlur_1475_6976" result="shape"/>
</filter>
<linearGradient id="paint0_linear_1475_6976" x1="5.76953" y1="14" x2="39.5551" y2="14.174" gradientUnits="userSpaceOnUse">
<stop stop-color="#FF7070"/>
<stop offset="1" stop-color="#FF7070" stop-opacity="0.65"/>
</linearGradient>
</defs>
</svg>
